TITLE ""
FILE "DISC1Track34.mp3" MP3
  TRACK 01 AUDIO
    TITLE "DISC1Track34_01"
    INDEX 01 00:00:00
  TRACK 02 AUDIO
    TITLE "DISC1Track34_02"
    INDEX 01 00:01:37
  TRACK 03 AUDIO
    TITLE "DISC1Track34_03"
    INDEX 01 00:01:53
  TRACK 04 AUDIO
    TITLE "DISC1Track34_04"
    INDEX 01 00:04:57
  TRACK 05 AUDIO
    TITLE "DISC1Track34_05"
    INDEX 01 00:07:48
  TRACK 06 AUDIO
    TITLE "DISC1Track34_06"
    INDEX 01 00:10:03
  TRACK 07 AUDIO
    TITLE "DISC1Track34_07"
    INDEX 01 00:10:19
  TRACK 08 AUDIO
    TITLE "DISC1Track34_08"
    INDEX 01 00:11:75
  TRACK 09 AUDIO
    TITLE "DISC1Track34_09"
    INDEX 01 00:14:03
  TRACK 10 AUDIO
    TITLE "DISC1Track34_10"
    INDEX 01 00:15:57
  TRACK 11 AUDIO
    TITLE "DISC1Track34_11"
    INDEX 01 00:15:73
  TRACK 12 AUDIO
    TITLE "DISC1Track34_12"
    INDEX 01 00:19:66
  TRACK 13 AUDIO
    TITLE "DISC1Track34_13"
    INDEX 01 00:23:23
  TRACK 14 AUDIO
    TITLE "DISC1Track34_14"
    INDEX 01 00:26:25
  TRACK 15 AUDIO
    TITLE "DISC1Track34_15"
    INDEX 01 00:26:41
  TRACK 16 AUDIO
    TITLE "DISC1Track34_16"
    INDEX 01 00:30:19
  TRACK 17 AUDIO
    TITLE "DISC1Track34_17"
    INDEX 01 00:34:11
  TRACK 18 AUDIO
    TITLE "DISC1Track34_18"
    INDEX 01 00:37:47
  TRACK 19 AUDIO
    TITLE "DISC1Track34_19"
    INDEX 01 00:37:64
  TRACK 20 AUDIO
    TITLE "DISC1Track34_20"
    INDEX 01 00:41:52
  TRACK 21 AUDIO
    TITLE "DISC1Track34_21"
    INDEX 01 00:46:22
  TRACK 22 AUDIO
    TITLE "DISC1Track34_22"
    INDEX 01 00:50:34
  TRACK 23 AUDIO
    TITLE "DISC1Track34_23"
    INDEX 01 00:50:51
  TRACK 24 AUDIO
    TITLE "DISC1Track34_24"
    INDEX 01 00:54:10
  TRACK 25 AUDIO
    TITLE "DISC1Track34_25"
    INDEX 01 00:58:23
  TRACK 26 AUDIO
    TITLE "DISC1Track34_26"
    INDEX 01 01:02:09
  TRACK 27 AUDIO
    TITLE "DISC1Track34_27"
    INDEX 01 01:02:25
  TRACK 28 AUDIO
    TITLE "DISC1Track34_28"
    INDEX 01 01:05:51
  TRACK 29 AUDIO
    TITLE "DISC1Track34_29"
    INDEX 01 01:09:31
  TRACK 30 AUDIO
    TITLE "DISC1Track34_30"
    INDEX 01 01:12:51
  TRACK 31 AUDIO
    TITLE "DISC1Track34_31"
    INDEX 01 01:12:69
  TRACK 32 AUDIO
    TITLE "DISC1Track34_32"
    INDEX 01 01:15:47
  TRACK 33 AUDIO
    TITLE "DISC1Track34_33"
    INDEX 01 01:18:42
  TRACK 34 AUDIO
    TITLE "DISC1Track34_34"
    INDEX 01 01:21:11
  TRACK 35 AUDIO
    TITLE "DISC1Track34_35"
    INDEX 01 01:21:21
  TRACK 36 AUDIO
    TITLE "DISC1Track34_36"
    INDEX 01 01:24:23
  TRACK 37 AUDIO
    TITLE "DISC1Track34_37"
    INDEX 01 01:27:31
  TRACK 38 AUDIO
    TITLE "DISC1Track34_38"
    INDEX 01 01:30:04
  TRACK 39 AUDIO
    TITLE "DISC1Track34_39"
    INDEX 01 01:30:21
  TRACK 40 AUDIO
    TITLE "DISC1Track34_40"
    INDEX 01 01:33:61
  TRACK 41 AUDIO
    TITLE "DISC1Track34_41"
    INDEX 01 01:36:69
  TRACK 42 AUDIO
    TITLE "DISC1Track34_42"
    INDEX 01 01:39:52
  TRACK 43 AUDIO
    TITLE "DISC1Track34_43"
    INDEX 01 01:39:67
  TRACK 44 AUDIO
    TITLE "DISC1Track34_44"
    INDEX 01 01:42:70
  TRACK 45 AUDIO
    TITLE "DISC1Track34_45"
    INDEX 01 01:45:35
  TRACK 46 AUDIO
    TITLE "DISC1Track34_46"
    INDEX 01 01:47:41
